# AST/ASF file generated using VICON BodyLanguage
# -----------------------------------------------
:version 1.10
:name VICON
:units
  mass 1.0
  length 0.45
  angle deg
:documentation
   .ast/.asf automatically generated from VICON data using
   VICON BodyBuilder and BodyLanguage model FoxedUp or BRILLIANT.MOD
:root
   order TX TY TZ RX RY RZ
   axis XYZ
   position 0 0 0  
   orientation 0 0 0 
:bonedata
  begin
     id 1 
     name lhipjoint
     direction 0.575328 -0.747301 0.332475 
     length 2.40933 
     axis 0 0 0  XYZ
  end
  begin
     id 2 
     name lfemur
     direction 0.34202 -0.939693 0  
     length 7.31453  
     axis 0 0 20  XYZ
    dof rx ry rz
    limits (-160.0 20.0)
           (-70.0 70.0)
           (-60.0 70.0)
  end
  begin
     id 3 
     name ltibia
     direction 0.34202 -0.939693 0   
     length 7.82185   
     axis 0 0 20   XYZ
    dof rx
    limits (-10.0 170.0)
  end
  begin
     id 4 
     name lfoot
     direction 0.0795993 -0.218697 0.972541   
     length 2.19173   
     axis -90 7.62852e-016 20   XYZ
    dof rx rz
    limits (-45.0 90.0)
           (-70.0 20.0)
  end
  begin
     id 5 
     name ltoes
     direction 1.53537e-011 -4.21894e-011 1   
     length 1.10023   
     axis -90 7.62852e-016 20   XYZ
    dof rx
    limits (-90.0 20.0)
  end
  begin
     id 6 
     name rhipjoint
     direction -0.513884 -0.783789 0.348708   
     length 2.29716  
     axis 0 0 0  XYZ 
  end
  begin
     id 7 
     name rfemur
     direction -0.34202 -0.939693 0   
     length 7.59573   
     axis 0 0 -20   XYZ
    dof rx ry rz
    limits (-160.0 20.0)
           (-70.0 70.0)
           (-70.0 60.0)
  end
  begin
     id 8 
     name rtibia
     direction -0.34202 -0.939693 0   
     length 7.66402   
     axis 0 0 -20   XYZ
    dof rx
    limits (-10.0 170.0)
 end
 begin
     id 9 
     name rfoot
     direction -0.137793 -0.378584 0.915253   
     length 2.27056  
     axis -90 -7.62852e-016 -20   XYZ
    dof rx rz
    limits (-45.0 90.0)
           (-20.0 70.0)
  end
  begin
     id 10 
     name rtoes
     direction -1.53493e-011 -4.22159e-011 1   
     length 1.11766   
     axis -90 -7.62852e-016 -20   XYZ
    dof rx
    limits (-90.0 20.0)
  end
  begin
     id 11 
     name lowerback
     direction -0.00732775 0.998356 -0.05685   
     length 2.16513   
     axis 0 0 0   XYZ
    dof rx ry rz
    limits (-20.0 45.0)
           (-30.0 30.0)
           (-30.0 30.0)
  end
  begin
     id 12 
     name upperback
     direction 0.0218081 0.999627 -0.0164647   
     length 2.16755   
     axis 0 0 0   XYZ
    dof rx ry rz
    limits (-20.0 45.0)
           (-30.0 30.0)
           (-30.0 30.0)
  end
  begin
     id 13 
     name thorax
     direction 0.02365 0.999661 0.0108914   
     length 2.16932   
     axis 0 0 0   XYZ
    dof rx ry rz
    limits (-20.0 45.0)
           (-30.0 30.0)
           (-30.0 30.0)
  end
  begin
     id 14 
     name lowerneck
     direction -0.0523929 0.978385 0.200044   
     length 1.63877   
     axis 0 0 0   XYZ
    dof rx ry rz
    limits (-20.0 45.0)
           (-30.0 30.0)
           (-30.0 30.0)
  end
  begin
     id 15 
     name upperneck
     direction 0.0448674 0.981321 -0.187074   
     length 1.69014   
     axis 0 0 0   XYZ
    dof rx ry rz
    limits (-20.0 45.0)
           (-30.0 30.0)
           (-30.0 30.0)
  end
  begin
     id 16
     name head
     direction 0.0199089 0.996118 -0.0857429  
     length 1.70094  
     axis 0 0 0   XYZ
    dof rx ry rz
    limits (-20.0 45.0)
           (-30.0 30.0)
           (-30.0 30.0)
  end
  begin
     id 17 
     name lclavicle
     direction 0.940366 0.30191 -0.156722  
     length 3.37521  
     axis 0 0 0   XYZ
    dof ry rz
    limits (-20.0 10.0)
           (0.0 20.0)
  end
  begin
     id 18 
     name lhumerus
     direction 1 -4.4897e-011 -1.7911e-027   
     length 5.25287   
     axis 180 -30 -90   XYZ
    dof rx ry rz
    limits (-60.0 90.0)
           (-90.0 90.0)
           (-90.0 90.0)
  end
  begin
     id 19
     name lradius
     direction 1 -4.48951e-011 1.04424e-027   
     length 3.51014   
     axis 180 -30 -90   XYZ
    dof rx
    limits (-10.0 170.0)
  end
  begin
     id 20
     name lwrist
     direction 1 -4.48997e-011 -9.5942e-028   
     length 1.75507   
     axis 8.48502e-016 90 90   XYZ
    dof ry
    limits (-180.0 0.0)
 end
  begin
     id 21 
     name lhand
     direction 1 -4.48831e-011 -1.90777e-027   
     length 0.706179   
     axis 1.22306e-015 90 90   XYZ
    dof rx rz
    limits (-90.0 90.0)
           (-45.0 45.0)
  end
  begin
     id 22 
     name lfingers
     direction 1 -4.49108e-011 -3.85244e-027   
     length 0.569339   
     axis 2.44611e-015 90 90   XYZ
    dof rx
    limits (0.0 90.0)
  end
  begin
     id 23
     name lthumb
     direction 0.707107 -6.34953e-011 0.707107   
     length 0.817461   
     axis -90 45 -1.62303e-014   XYZ
    dof rx rz
    limits (-45.0 45.0)
           (-45.0 45.0)
  end
  begin
     id 24 
     name rclavicle
     direction -0.905329 0.382405 -0.184787   
     length 3.30787  
     axis 0 0 0   XYZ 
    dof ry rz
    limits (-10.0 20.0)
           (-20.0 0.0)
  end
  begin
     id 25 
     name rhumerus
     direction -1 -4.48953e-011 -9.15316e-029  
     length 5.28721   
     axis 180 30 90   XYZ
    dof rx ry rz
    limits (-90.0 60.0)
           (-90.0 90.0)
           (-90.0 90.0)
  end
  begin
     id 26 
     name rradius
     direction -1 -4.48987e-011 9.37824e-028   
     length 3.50544   
     axis 180 30 90   XYZ
    dof rx
    limits (-10.0 170.0)
  end
  begin
     id 27 
     name rwrist
     direction -1 -4.48967e-011 -9.58414e-028   
     length 1.75272   
     axis 8.48502e-016 -90 -90   XYZ
    dof ry
    limits (-180.0 0.0)
  end
  begin
     id 28
     name rhand
     direction -1 -4.48904e-011 -1.91266e-027   
     length 0.884996   
     axis 1.22306e-015 -90 -90   XYZ
    dof rx rz
    limits (-90.0 90.0)
           (-45.0 45.0)
  end
  begin
     id 29
     name rfingers
     direction -1 -4.4909e-011 -3.85015e-027   
     length 0.713507   
     axis 2.44611e-015 -90 -90   XYZ
    dof rx
    limits (0.0 90.0)
  end
  begin
     id 30
     name rthumb
     direction -0.707107 -6.34853e-011 0.707107   
     length 1.02446   
     axis -90 -45 1.62303e-014   XYZ
    dof rx rz
    limits (-45.0 45.0)
           (-45.0 45.0)
  end
:hierarchy
  begin
    root lhipjoint rhipjoint lowerback
    lhipjoint lfemur
    lfemur ltibia
    ltibia lfoot
    lfoot ltoes
    rhipjoint rfemur
    rfemur rtibia
    rtibia rfoot
    rfoot rtoes
    lowerback upperback
    upperback thorax
    thorax lowerneck lclavicle rclavicle
    lowerneck upperneck
    upperneck head
    lclavicle lhumerus
    lhumerus lradius
    lradius lwrist
    lwrist lhand lthumb
    lhand lfingers
    rclavicle rhumerus
    rhumerus rradius
    rradius rwrist
    rwrist rhand rthumb
    rhand rfingers
  end

#!OML:ASF F:\twosubjects\two\Thursday\Session 1\justin.ASF
:FULLY-SPECIFIED
:DEGREES
98
root 7.67558 18.4637 6.16255 -167.913 -4.15114 -179.913
lowerback 1.4532 -0.756043 -0.768944
upperback -0.335809 -1.05158 -1.09604
thorax -1.16501 -0.531068 -0.665379
lowerneck -19.4148 -4.67642 -8.93467
upperneck 24.1641 -8.45791 12.5814
head 12.1301 -3.46589 4.78769
rclavicle 1.28216e-014 3.97569e-015
rhumerus -30.503 -11.9843 -86.0477
rradius 30.4163
rwrist -4.35665
rhand -12.8149 12.4313
rfingers 7.12502
rthumb 13.2716 -17.1261
lclavicle 1.28216e-014 3.97569e-015
lhumerus -32.665 0.0416674 81.5792
lradius 26.3095
lwrist -10.6619
lhand 2.31299 36.1199
lfingers 7.12502
lthumb 27.8039 64.0831
rfemur -29.001 -7.44825 25.7327
rtibia 27.8565
rfoot -10.5739 -15.7186
rtoes 4.69514
lfemur -0.869072 9.18134 -22.0443
ltibia 11.3465
lfoot -7.2644 2.64049
ltoes -29.821
99
root 7.68647 18.4657 6.11404 -167.957 -4.07125 -179.855
lowerback 1.60983 -0.695798 -0.39911
upperback -0.392016 -0.968268 -1.19277
thorax -1.31767 -0.492658 -0.971174
lowerneck -19.2383 -4.63858 -8.78178
upperneck 24.3845 -8.61148 12.7391
head 12.2028 -3.52807 4.80091
rclavicle -9.64106e-015 -1.78906e-014
rhumerus -30.7234 -12.4211 -86.0648
rradius 30.5739
rwrist -4.17353
rhand -13.0224 12.0116
rfingers 7.12502
rthumb 13.0716 -17.5587
lclavicle -9.64106e-015 -1.78906e-014
lhumerus -32.9839 -0.595766 81.6924
lradius 26.5213
lwrist -10.2497
lhand 2.38667 36.2788
lfingers 7.12502
lthumb 27.8743 64.2306
rfemur -28.7013 -7.33296 25.7886
rtibia 27.7203
rfoot -10.9484 -15.7255
rtoes 5.2193
lfemur -1.13281 9.0329 -21.8624
ltibia 12.3109
lfoot -7.34052 2.69595
ltoes -28.8706
100
root 7.68906 18.4897 6.0604 -168.079 -3.96874 -179.92
lowerback 1.87329 -0.825804 -0.241797
upperback -0.447279 -1.13773 -1.10683
thorax -1.52577 -0.577396 -0.961996
lowerneck -19.1378 -4.51871 -9.06939
upperneck 24.6955 -8.53371 12.9941
head 12.3202 -3.51213 4.97449
rclavicle -8.74653e-015 1.66979e-014
rhumerus -30.8777 -12.0338 -86.0253
rradius 30.6939
rwrist -4.04138
rhand -13.2424 11.9833
rfingers 7.12502
rthumb 12.8596 -17.6005
lclavicle -8.74653e-015 1.66979e-014
lhumerus -33.381 -0.41448 81.8097
lradius 26.668
lwrist -9.89145
lhand 3.16654 36.7594
lfingers 7.12502
lthumb 28.6197 64.5879
rfemur -28.2417 -7.38646 25.6774
rtibia 27.5468
rfoot -11.1644 -15.5942
rtoes 5.36106
lfemur -1.33425 8.92664 -21.8257
ltibia 13.4186
lfoot -7.62811 2.52386
ltoes -25.3392
101
root 7.69249 18.49 6.01522 -168.026 -3.72874 -179.869
lowerback 1.89449 -0.859359 -0.0969254
upperback -0.483554 -1.17269 -0.934967
thorax -1.57462 -0.593724 -0.865308
lowerneck -19.05 -4.44361 -9.2479
upperneck 24.8856 -8.46148 13.0797
head 12.3787 -3.50019 5.05874
rclavicle 2.37548e-014 2.54444e-014
rhumerus -30.8338 -11.7573 -85.9034
rradius 30.7676
rwrist -3.98226
rhand -12.8859 12.2583
rfingers 7.12502
rthumb 13.2031 -17.3036
lclavicle 2.37548e-014 2.54444e-014
lhumerus -33.704 -0.160567 82.0387
lradius 26.8894
lwrist -9.75856
lhand 3.60536 37.0938
lfingers 7.12502
lthumb 29.0389 64.8508
rfemur -28.1008 -7.40846 25.7568
rtibia 27.4439
rfoot -11.161 -15.3193
rtoes 5.14293
lfemur -1.82449 9.02686 -21.7838
ltibia 14.4966
lfoot -7.80194 2.6354
ltoes -26.7211
102
root 7.69777 18.4909 5.97326 -167.925 -3.36061 -179.736
lowerback 1.68502 -0.847096 -0.080715
upperback -0.472787 -1.14473 -0.612644
thorax -1.43928 -0.576017 -0.548704
lowerneck -18.5998 -4.35767 -9.50394
upperneck 24.8086 -8.27191 13.0284
head 12.2357 -3.46652 5.11644
rclavicle -4.72114e-015 2.78299e-015
rhumerus -30.8047 -11.0738 -85.6935
rradius 30.9681
rwrist -4.38805
rhand -12.642 11.7444
rfingers 7.12502
rthumb 13.4383 -17.8021
lclavicle -4.72114e-015 2.78299e-015
lhumerus -34.1459 0.0948171 82.431
lradius 27.3492
lwrist -9.51883
lhand 3.26323 36.9171
lfingers 7.12502
lthumb 28.7121 64.73
rfemur -28.0123 -7.20809 25.9107
rtibia 27.2643
rfoot -11.2439 -15.1152
rtoes 5.07047
lfemur -2.42068 9.03718 -21.6853
ltibia 15.6678
lfoot -8.04664 2.88064
ltoes -27.3496
103
root 7.71004 18.4837 5.92438 -167.973 -3.14128 -179.653
lowerback 1.4013 -0.932368 -0.36842
upperback -0.221006 -1.25169 -0.124513
thorax -1.00621 -0.624151 0.107075
lowerneck -18.6633 -4.34202 -9.98116
upperneck 24.9445 -8.09224 13.0008
head 12.2944 -3.42813 5.22732
rclavicle -3.62782e-015 9.93923e-016
rhumerus -30.3051 -10.0374 -85.446
rradius 31.0024
rwrist -4.84381
rhand -12.8037 11.1577
rfingers 7.12502
rthumb 13.2824 -18.3991
lclavicle -3.62782e-015 9.93923e-016
lhumerus -34.1469 0.614658 82.9346
lradius 27.6592
lwrist -9.17442
lhand 3.15954 37.1015
lfingers 7.12502
lthumb 28.613 64.9312
rfemur -27.7042 -7.06358 26.024
rtibia 27.1342
rfoot -11.516 -15.0552
rtoes 5.29352
lfemur -2.68935 9.04883 -21.5102
ltibia 16.6776
lfoot -7.9602 2.96677
ltoes -27.3492
104
root 7.72724 18.4929 5.86888 -168.065 -3.13787 -179.61
lowerback 0.946484 -0.991586 -0.835107
upperback 0.276959 -1.33111 0.428614
thorax -0.217707 -0.666649 0.920907
lowerneck -19.4022 -4.4893 -10.3445
upperneck 25.2909 -8.10415 12.8942
head 12.5965 -3.43952 5.26002
rclavicle -1.36167e-014 2.38542e-015
rhumerus -29.3641 -9.35505 -85.0513
rradius 30.9636
rwrist -4.94433
rhand -12.7072 11.6969
rfingers 7.12502
rthumb 13.3754 -17.8538
lclavicle -1.36167e-014 2.38542e-015
lhumerus -33.3417 1.42881 83.5878
lradius 27.5446
lwrist -9.24463
lhand 3.14055 37.5472
lfingers 7.12502
lthumb 28.5948 65.38
rfemur -27.2435 -6.94358 26.0809
rtibia 26.9647
rfoot -11.7771 -15.1524
rtoes 5.56419
lfemur -2.90817 9.02501 -21.26
ltibia 17.733
lfoot -7.90464 2.677
ltoes -26.3619
105
root 7.7413 18.5094 5.8179 -168.158 -3.11806 -179.547
lowerback 0.0693694 -0.917037 -1.91326
upperback 0.966764 -1.24462 1.45858
thorax 1.02489 -0.653867 2.55741
lowerneck -19.5279 -4.74942 -10.9886
upperneck 25.0961 -8.01836 12.5119
head 12.5409 -3.46975 5.23351
rclavicle -8.94531e-015 1.07344e-014
rhumerus -28.2454 -8.2685 -83.9723
rradius 31.1012
rwrist -5.31016
rhand -13.0833 11.7712
rfingers 7.12502
rthumb 13.0129 -17.8029
lclavicle -8.94531e-015 1.07344e-014
lhumerus -32.1938 2.58688 84.968
lradius 27.3078
lwrist -9.65073
lhand 3.34195 37.8774
lfingers 7.12502
lthumb 28.7873 65.6775
rfemur -26.8383 -6.70657 26.1231
rtibia 26.7843
rfoot -11.7466 -15.2966
rtoes 5.56824
lfemur -3.17212 8.88167 -21.0051
ltibia 18.7506
lfoot -8.10069 2.39841
ltoes -24.9914
106
root 7.75492 18.5068 5.77079 -168.341 -2.98886 -179.474
lowerback -0.0452369 -0.944408 -2.1972
upperback 1.1286 -1.29495 1.9165
thorax 1.27583 -0.694908 3.18466
lowerneck -18.8979 -5.92503 -10.9502
upperneck 25.3113 -7.52329 12.0418
head 12.4449 -2.5655 5.29767
rclavicle -9.79014e-015 -2.8625e-014
rhumerus -27.9972 -7.38202 -83.6615
rradius 31.2135
rwrist -5.5741
rhand -13.7815 10.9019
rfingers 7.12502
rthumb 12.3398 -18.714
lclavicle -9.79014e-015 -2.8625e-014
lhumerus -32.2409 3.04466 85.4865
lradius 27.4969
lwrist -9.59793
lhand 3.4481 37.8822
lfingers 7.12502
lthumb 28.8887 65.6651
rfemur -26.3611 -6.52175 26.2064
rtibia 26.5761
rfoot -11.4897 -15.3723
rtoes 4.86833
lfemur -3.42222 8.87 -20.7781
ltibia 19.8608
lfoot -8.42297 2.30451
ltoes -25.2156
107
root 7.76488 18.504 5.71833 -168.564 -2.79334 -179.242
lowerback 0.0790977 -0.992979 -1.86675
upperback 1.24491 -1.37714 2.10317
thorax 1.32794 -0.740464 3.19089
lowerneck -18.5903 -5.95948 -11.0595
upperneck 25.3847 -7.56347 12.093
head 12.4248 -2.58888 5.33674
rclavicle 2.18663e-015 1.19271e-014
rhumerus -27.7943 -7.00188 -83.6449
rradius 31.2365
rwrist -5.72786
rhand -13.6078 10.5272
rfingers 7.12502
rthumb 12.5072 -19.0785
lclavicle 2.18663e-015 1.19271e-014
lhumerus -32.4433 3.1216 85.615
lradius 27.8532
lwrist -9.34328
lhand 2.7431 37.086
lfingers 7.12502
lthumb 28.215 64.982
rfemur -25.8232 -6.44499 26.4526
rtibia 26.3779
rfoot -11.5469 -15.2923
rtoes 4.55004
lfemur -3.69198 9.05121 -20.4143
ltibia 21.1334
lfoot -8.61984 2.25891
ltoes -27.2764
108
root 7.7723 18.5091 5.67544 -168.443 -2.2939 -179.076
lowerback -0.0494528 -0.812205 -1.56688
upperback 1.2779 -1.14249 2.16309
thorax 1.41265 -0.623393 3.08446
lowerneck -18.4783 -6.15357 -11.101
upperneck 25.6128 -7.8603 12.2185
head 12.5461 -2.69671 5.35745
rclavicle -7.35503e-015 2.22639e-014
rhumerus -27.6075 -7.06135 -83.5331
rradius 31.2587
rwrist -5.84363
rhand -13.1284 10.9823
rfingers 7.12502
rthumb 12.9694 -18.5946
lclavicle -7.35503e-015 2.22639e-014
lhumerus -32.4301 2.82775 85.7669
lradius 28.1728
lwrist -9.14848
lhand 2.23174 36.4947
lfingers 7.12502
lthumb 27.7262 64.4705
rfemur -25.7624 -6.27778 26.6266
rtibia 26.2291
rfoot -11.691 -14.9385
rtoes 4.64776
lfemur -4.33606 9.40489 -20.265
ltibia 22.3496
lfoot -8.38607 2.15351
ltoes -29.9865
109
root 7.78341 18.5058 5.65245 -167.865 -1.27973 -179.118
lowerback -0.406282 -0.444066 -1.69883
upperback 1.08374 -0.641312 2.20357
thorax 1.38284 -0.36977 3.20576
lowerneck -18.1482 -6.33965 -11.1423
upperneck 25.8257 -8.12834 12.255
head 12.6084 -2.80619 5.34835
rclavicle 6.26172e-015 -2.14687e-014
rhumerus -27.6367 -6.93666 -83.3512
rradius 31.3615
rwrist -5.99288
rhand -13.1431 11.8227
rfingers 7.12502
rthumb 12.9553 -17.7551
lclavicle 6.26172e-015 -2.14687e-014
lhumerus -32.4041 2.56519 86.0182
lradius 28.3689
lwrist -9.06067
lhand 2.48971 37.0437
lfingers 7.12502
lthumb 27.9728 64.9795
rfemur -26.3049 -5.84407 26.5924
rtibia 26.1379
rfoot -11.565 -14.3539
rtoes 3.55334
lfemur -5.54497 10.1836 -20.5528
ltibia 23.5875
lfoot -7.8478 1.98827
ltoes -31.905
110
root 7.80179 18.5044 5.60176 -168.378 -2.1084 -179.307
lowerback 0.159627 -0.796918 -1.76428
upperback 1.2448 -1.13278 2.41562
thorax 1.27014 -0.623761 3.46031
lowerneck -18.047 -6.40346 -11.3234
upperneck 26.0738 -8.1855 12.3417
head 12.7106 -2.82865 5.42081
rclavicle 8.74653e-015 -3.18055e-014
rhumerus -27.4863 -6.5172 -83.2156
rradius 31.4484
rwrist -6.07383
rhand -13.1467 11.7624
rfingers 7.12502
rthumb 12.9518 -17.8156
lclavicle 8.74653e-015 -3.18055e-014
lhumerus -32.3542 2.65086 86.1913
lradius 28.5774
lwrist -9.04507
lhand 2.76612 37.6331
lfingers 7.12502
lthumb 28.237 65.5255
rfemur -25.475 -6.2143 26.4395
rtibia 26.1451
rfoot -11.9797 -14.8433
rtoes 3.05218
lfemur -5.56108 9.89771 -20.2385
ltibia 24.8244
lfoot -7.65752 1.14337
ltoes -33.1093
111
root 7.81561 18.5085 5.56173 -168.441 -1.92138 -179.011
lowerback 0.287814 -0.835709 -1.44919
upperback 1.32812 -1.2068 2.66883
thorax 1.28814 -0.667214 3.54464
lowerneck -18.132 -6.44295 -11.6108
upperneck 26.4922 -8.19147 12.534
head 12.926 -2.8156 5.57404
rclavicle 6.95746e-015 -1.66979e-014
rhumerus -27.1895 -6.19563 -83.1438
rradius 31.4827
rwrist -6.00294
rhand -12.3578 10.6038
rfingers 7.12502
rthumb 13.7122 -18.9244
lclavicle 6.95746e-015 -1.66979e-014
lhumerus -32.3044 2.87302 86.2131
lradius 28.8923
lwrist -9.08166
lhand 2.6933 37.2169
lfingers 7.12502
lthumb 28.1674 65.1208
rfemur -25.2802 -5.92609 26.7473
rtibia 26.1906
rfoot -12.1865 -14.8278
rtoes 3.4868
lfemur -6.11337 10.2346 -19.7506
ltibia 26.1274
lfoot -7.56006 0.67318
ltoes -33.7579
